<?xml version="1.0" ?><svg enable-background="new 45.6 168.9 504 504" id="Layer_1" version="1.1" viewBox="45.6 168.9 504 504" xml:space="preserve" xmlns="http://www.w3.org/2000/svg" xmlns:xlink="http://www.w3.org/1999/xlink"><path d="M308.7,398.9h143.6l66.3,66.3V277.3c0-24.3-19.9-44.2-44.2-44.2H308.7c-24.3,0-44.2,19.9-44.2,44.2v77.3  C264.5,379,284.4,398.9,308.7,398.9z" fill="#1565C0"/><path d="M286.6,365.7H143L76.7,432V244.2c0-24.3,19.9-44.2,44.2-44.2h165.7c24.3,0,44.2,19.9,44.2,44.2v77.3  C330.8,345.8,310.9,365.7,286.6,365.7z" fill="#2196F3"/><g><circle cx="165.1" cy="498.3" fill="#FFA726" r="55.2"/><circle cx="430.2" cy="498.3" fill="#FFA726" r="55.2"/></g><g><path d="M253.5,619.8c0,0-24.3-44.2-88.4-44.2s-88.4,44.2-88.4,44.2v22.1h176.8V619.8z" fill="#607D8B"/><path d="M518.6,619.8c0,0-24.3-44.2-88.4-44.2s-88.4,44.2-88.4,44.2v22.1h176.8V619.8z" fill="#607D8B"/></g></svg>