<?xml version="1.0" ?><svg enable-background="new 45.6 168.9 504 504" id="Layer_1" version="1.1" viewBox="45.6 168.9 504 504" xml:space="preserve" xmlns="http://www.w3.org/2000/svg" xmlns:xlink="http://www.w3.org/1999/xlink"><path d="M420.2,234.3H318.1c0,11.2-9.2,20.4-20.4,20.4s-20.4-9.2-20.4-20.4H175.1c-22.5,0-40.9,18.4-40.9,40.9V602  c0,22.5,18.4,40.9,40.9,40.9h245.1c22.5,0,40.9-18.4,40.9-40.9V275.1C461.1,252.7,442.7,234.3,420.2,234.3z" fill="#455A64"/><path d="M420.2,612.2H175.1c-6.1,0-10.2-4.1-10.2-10.2V275.1c0-6.1,4.1-10.2,10.2-10.2h245.1  c6.1,0,10.2,4.1,10.2,10.2V602C430.4,608.1,426.3,612.2,420.2,612.2z" fill="#FFFFFF"/><g><path d="M318.1,234.3c0,11.2-9.2,20.4-20.4,20.4s-20.4-9.2-20.4-20.4h-71.5v40.9c0,11.2,9.2,20.4,20.4,20.4h143   c11.2,0,20.4-9.2,20.4-20.4v-40.9H318.1z" fill="#90A4AE"/><path d="M297.6,193.4c-22.5,0-40.9,18.4-40.9,40.9s18.4,40.9,40.9,40.9c22.5,0,40.9-18.4,40.9-40.9   S320.1,193.4,297.6,193.4z M297.6,254.7c-11.2,0-20.4-9.2-20.4-20.4s9.2-20.4,20.4-20.4s20.4,9.2,20.4,20.4   S308.9,254.7,297.6,254.7z" fill="#90A4AE"/></g><polygon fill="#4CAF50" points="365.1,383.4 273.1,475.3 230.2,431.4 204.7,457 274.1,525.4 390.6,408.9 "/></svg>