<?xml version="1.0" ?><svg enable-background="new 45.6 168.9 504 504" id="Layer_1" version="1.1" viewBox="45.6 168.9 504 504" xml:space="preserve" xmlns="http://www.w3.org/2000/svg" xmlns:xlink="http://www.w3.org/1999/xlink"><path d="M487.7,621.6c-81.8,0-189.6,47.4-189.6,47.4V408.3c0,0,106.6-47.4,213.3-47.4L487.7,621.6z" fill="#5C6BC0"/><path d="M108.6,621.6c81.8,0,189.6,47.4,189.6,47.4V408.3c0,0-106.6-47.4-213.3-47.4L108.6,621.6z" fill="#7986CB"/><g><circle cx="298.1" cy="289.8" fill="#FFB74D" r="94.8"/><path d="M499.6,526.8h11.8c7.1,0,11.8-4.7,11.8-11.8v-47.4c0-7.1-4.7-11.8-11.8-11.8h-11.8   c-20.1,0-35.5,15.4-35.5,35.5l0,0C464,511.4,479.4,526.8,499.6,526.8z" fill="#FFB74D"/><path d="M96.7,455.7H84.9c-7.1,0-11.8,4.7-11.8,11.8v47.4c0,7.1,4.7,11.8,11.8,11.8h11.8   c20.1,0,35.5-15.4,35.5-35.5l0,0C132.3,471.1,116.8,455.7,96.7,455.7z" fill="#FFB74D"/></g></svg>